<?xml version="1.0" encoding="UTF-8"?><svg id="Layer_1" xmlns="http://www.w3.org/2000/svg" viewBox="0 0 306.38 306.38"><defs><style>.cls-1{fill:#ccc;}.cls-2{fill:#333;}</style></defs><circle class="cls-1" cx="153.19" cy="153.19" r="153.19"/><path class="cls-2" d="M105.79,260.98c-14.07-12.82-6.28-33.17,16.84-45.23,7.79-3.77,13.57-5.53,23.62-5.28,6.28.25,13.32,3.77,13.32,3.77,0-45.48-.25-131.42-.25-173.64,2.51,0,4.27-.25,7.79-.25v6.53c0,2.26,0,3.52.25,5.03,2.51,15.83,6.03,22.11,23.62,41.46,22.36,24.88,28.9,39.7,28.9,59.55-.25,18.6-16.58,58.3-20.1,56.79,5.03-14.07,12.06-29.15,13.82-41.71,2.26-15.33-4.02-36.94-14.07-48.25-8.04-9.55-27.14-17.84-32.42-17.84,0,0-.25,91.47-.25,126.15,0,5.78-5.28,16.08-8.29,19.6-13.82,16.58-40.71,24.12-52.77,13.32Z"/></svg>